<?xml version="1.0" encoding="UTF-8"?>
<svg version="1.1" xmlns="http://www.w3.org/2000/svg" width="500" height="500">
<path d="M0 0 C165 0 330 0 500 0 C500 165 500 330 500 500 C335 500 170 500 0 500 C0 335 0 170 0 0 Z " fill="#46297F" transform="translate(0,0)"/>
<path d="M0 0 C6.88341917 -0.09236045 13.76464582 -0.17184101 20.64819336 -0.21972656 C22.98453093 -0.23971041 25.32081933 -0.26690688 27.65698242 -0.30175781 C59.69095259 -0.76730814 59.69095259 -0.76730814 72 10 C79.64224052 17.94457091 81.47081706 26.33554241 81.3515625 37.11938477 C81.03621892 46.41216597 78.13975516 53.9472209 72 61 C67.94615951 64.35708666 64.13777819 66.81135935 59 68 C59.27038086 68.55534424 59.54076172 69.11068848 59.81933594 69.68286133 C65.61903985 81.6262164 71.26141652 93.63278136 76.6875 105.75 C77.21633789 106.92151611 77.74517578 108.09303223 78.29003906 109.30004883 C78.77569336 110.39212646 79.26134766 111.4842041 79.76171875 112.609375 C80.410802 114.0629541 80.410802 114.0629541 81.07299805 115.54589844 C82 118 82 118 82 121 C74.08 121 66.16 121 58 121 C52.50933568 110.34811121 47.44417826 99.53817085 42.5 88.625 C42.17932556 87.92043671 41.85865112 87.21587341 41.52825928 86.48995972 C40.60835589 84.46654283 39.6938903 82.44076398 38.78125 80.4140625 C38.24564453 79.2276416 37.71003906 78.0412207 37.15820312 76.81884766 C36 74 36 74 36 72 C31.71 72 27.42 72 23 72 C23.00785522 74.17323853 23.00785522 74.17323853 23.01586914 76.39038086 C23.03391273 81.74454129 23.04542965 87.09869901 23.05493164 92.45288086 C23.05997333 94.77417451 23.06680651 97.09546497 23.07543945 99.41674805 C23.08751225 102.74528795 23.09322979 106.07378602 23.09765625 109.40234375 C23.10281754 110.44712387 23.10797882 111.49190399 23.11329651 112.56834412 C23.11340981 114.00972496 23.11340981 114.00972496 23.11352539 115.48022461 C23.115746 116.33071884 23.11796661 117.18121307 23.12025452 118.05747986 C23 120 23 120 22 121 C14.74 121 7.48 121 0 121 C0 97.57 0 74.14 0 50 C22.5 49.75 22.5 49.75 29.55664062 49.70214844 C31.42320184 49.67275626 33.28974121 49.64192648 35.15625 49.609375 C36.10854492 49.60824707 37.06083984 49.60711914 38.04199219 49.60595703 C45.10836603 49.45584235 50.87980273 48.12019727 56 43 C57.45796313 39.20929586 57.54887001 34.99322822 57 31 C54.68785046 26.66471961 51.90300084 25.25120602 47.35058594 23.62435913 C43.06643079 22.48640823 38.78503364 22.51816342 34.375 22.48828125 C33.38749756 22.47033005 32.39999512 22.45237885 31.38256836 22.43388367 C28.2550879 22.38007319 25.12775748 22.345979 22 22.3125 C19.86846884 22.2793011 17.7369574 22.24480909 15.60546875 22.20898438 C10.40362772 22.12194968 5.20245099 22.06163034 0 22 C0 14.74 0 7.48 0 0 Z " fill="#F7F3EC" transform="translate(231,114)"/>
<path d="M0 0 C7.59 0 15.18 0 23 0 C24.65297909 1.65297909 24.16692183 3.61036555 24.20532227 5.88696289 C24.22526749 6.92796646 24.24521271 7.96897003 24.26576233 9.04151917 C24.28247482 10.1737944 24.29918732 11.30606964 24.31640625 12.47265625 C24.33718735 13.62543564 24.35796844 14.77821503 24.37937927 15.96592712 C24.44499964 19.66472157 24.50381755 23.36358959 24.5625 27.0625 C24.60567335 29.56315879 24.64928724 32.06381001 24.69335938 34.56445312 C24.80069368 40.70955662 24.90243643 46.85473404 25 53 C26.75333125 50.93420694 28.50580909 48.86769997 30.2578125 46.80078125 C30.74999268 46.22106567 31.24217285 45.6413501 31.74926758 45.04406738 C35.16671666 41.01056691 38.50138746 36.92066756 41.78515625 32.77734375 C43.51068877 30.61358075 45.24762221 28.46153945 46.99609375 26.31640625 C47.53387451 25.65423096 48.07165527 24.99205566 48.62573242 24.30981445 C49.75469226 22.93117294 50.89432722 21.56120779 52.04418945 20.19995117 C54.82063377 16.87853467 57.26634845 13.69076352 59.296875 9.859375 C61.62650011 5.73584672 63.66660014 2.20234595 68 0 C77.20771135 -1.69932526 86.73190762 -0.85946847 96 0 C95.13395127 4.21499647 92.98015012 6.90616948 90.3125 10.1875 C89.82700684 10.79480957 89.34151367 11.40211914 88.84130859 12.02783203 C83.81135217 18.29505304 78.68761205 24.48700884 73.56640625 30.6796875 C68.46510957 36.85148884 63.41176796 43.06133838 58.38623047 49.29492188 C57.13889501 50.82915767 55.86958708 52.34546708 54.59765625 53.859375 C53.94667969 54.64828125 53.29570312 55.4371875 52.625 56.25 C51.80902344 57.21679688 51.80902344 57.21679688 50.9765625 58.203125 C49.79478442 59.94734584 49.79478442 59.94734584 50.28857422 61.9206543 C51.47711513 65.39450568 54.08922415 67.86689436 56.5 70.5625 C57.6051852 71.82332667 58.70934354 73.08505415 59.8125 74.34765625 C60.35777344 74.96914551 60.90304688 75.59063477 61.46484375 76.23095703 C63.53038591 78.61119216 65.51896482 81.04919729 67.5 83.5 C70.8961772 87.68085352 74.36401827 91.79078535 77.875 95.875 C78.37692871 96.46015381 78.87885742 97.04530762 79.39599609 97.64819336 C81.96698517 100.64329279 84.54749388 103.62951896 87.140625 106.60546875 C88.1355791 107.75767226 89.1303769 108.91001075 90.125 110.0625 C90.58632324 110.58634277 91.04764648 111.11018555 91.52294922 111.64990234 C94.09323231 114.64195564 95.63306451 117.32457396 97 121 C93.0357481 121.24971061 89.07460874 121.42974164 85.10424805 121.54931641 C83.10106469 121.62357048 81.10006666 121.75073501 79.09960938 121.87890625 C69.5234487 122.12011937 69.5234487 122.12011937 65.24365234 118.97338867 C62.93269022 116.42795667 60.94991578 113.82890964 59 111 C58.01851922 109.77601059 57.03003574 108.55756602 56.03125 107.34765625 C55.18402597 106.25528975 54.34023565 105.16025096 53.5 104.0625 C52.56996054 102.86254424 51.63895745 101.66333479 50.70703125 100.46484375 C50.25408691 99.88202637 49.80114258 99.29920898 49.33447266 98.69873047 C47.32533709 96.14118102 45.25751589 93.63337219 43.1875 91.125 C39.65985203 86.84233385 36.2731912 82.47977934 33 78 C24.85630283 86.05581554 17.26981733 94.52939903 10.078125 103.44140625 C4.21236778 110.66334418 4.21236778 110.66334418 1 114 C0.67 114 0.34 114 0 114 C0 76.38 0 38.76 0 0 Z " fill="#F5F1EC" transform="translate(129,114)"/>
<path d="M0 0 C7.59 0 15.18 0 23 0 C23 39.93 23 79.86 23 121 C15.41 121 7.82 121 0 121 C-0.33 120.67 -0.66 120.34 -1 120 C-1 113.07 -1 106.14 -1 99 C-15.85 99 -30.7 99 -46 99 C-46 106.26 -46 113.52 -46 121 C-53.59 121 -61.18 121 -69 121 C-69 106.15 -69 91.3 -69 76 C-46.23 76 -23.46 76 0 76 C0 50.92 0 25.84 0 0 Z " fill="#F7F2EC" transform="translate(221,325)"/>
<path d="M0 0 C3 1 3 1 4.06811523 2.95446777 C4.5584021 4.24834412 4.5584021 4.24834412 5.05859375 5.56835938 C5.4381723 6.55304703 5.81775085 7.53773468 6.20883179 8.55226135 C6.6142923 9.63845261 7.01975281 10.72464386 7.4375 11.84375 C7.87043365 12.97566269 8.30336731 14.10757538 8.74942017 15.27378845 C9.68648491 17.72810226 10.61930429 20.18356492 11.54522705 22.64205933 C13.00270631 26.51177118 14.47525178 30.37562881 15.95068359 34.23852539 C17.46464148 38.20444885 18.9775412 42.17075915 20.48495483 46.13917542 C25.06845856 58.20528997 29.72150926 70.24393023 34.39648438 82.27490234 C35.60187111 85.37795873 36.80515532 88.48182233 38.0078125 91.5859375 C38.74735167 93.49350671 39.48693265 95.4010597 40.2265625 97.30859375 C40.5516983 98.14792953 40.87683411 98.98726532 41.21182251 99.85203552 C41.52171112 100.65037308 41.83159973 101.44871063 42.15087891 102.27124023 C42.44955872 103.0433786 42.74823853 103.81551697 43.05596924 104.61105347 C43.72694655 106.30901607 44.41821603 107.99902112 45.12322998 109.68313599 C45.49039124 110.56508636 45.85755249 111.44703674 46.23583984 112.35571289 C46.57304047 113.14998184 46.91024109 113.94425079 47.25765991 114.7625885 C48 117 48 117 48 121 C40.41 121 32.82 121 25 121 C20.49737402 109.74343506 20.49737402 109.74343506 18.80175781 104.95532227 C18.42166565 103.88464005 18.04157349 102.81395782 17.64996338 101.71083069 C17.25500671 100.59067062 16.86005005 99.47051056 16.453125 98.31640625 C16.03705994 97.13908432 15.62099487 95.96176239 15.19232178 94.74876404 C14.32060283 92.27927974 13.45003438 89.80938906 12.58056641 87.33911133 C11.46663444 84.17454354 10.34638047 81.01225235 9.22462845 77.85044956 C8.15078298 74.81974079 7.08362293 71.78667962 6.015625 68.75390625 C5.61257141 67.61957657 5.20951782 66.48524689 4.79425049 65.31654358 C4.24302521 63.74361794 4.24302521 63.74361794 3.68066406 62.13891602 C3.19246185 60.75519554 3.19246185 60.75519554 2.69439697 59.34352112 C2 57 2 57 2 54 C1.34 54 0.68 54 0 54 C-0.1712439 54.66010071 -0.34248779 55.32020142 -0.5189209 56.00030518 C-2.36517112 62.96005991 -4.53194379 69.75103339 -6.90625 76.546875 C-7.2722229 77.60231506 -7.6381958 78.65775513 -8.01525879 79.74517822 C-8.78331962 81.95751933 -9.55315796 84.16924408 -10.32470703 86.38037109 C-11.50113798 89.75326264 -12.67089552 93.12841507 -13.83984375 96.50390625 C-14.59075226 98.66419934 -15.3420412 100.82436025 -16.09375 102.984375 C-16.61418884 104.48614288 -16.61418884 104.48614288 -17.1451416 106.01824951 C-17.47558472 106.96323303 -17.80602783 107.90821655 -18.14648438 108.88183594 C-18.4327771 109.70359314 -18.71906982 110.52535034 -19.01403809 111.37200928 C-20.23416621 114.62414847 -21.63172587 117.80736036 -23 121 C-30.59 121 -38.18 121 -46 121 C-44.87500961 113.12506727 -44.87500961 113.12506727 -43.35205078 109.20947266 C-43.01234756 108.3253067 -42.67264435 107.44114075 -42.32264709 106.53018188 C-41.95062668 105.58436249 -41.57860626 104.63854309 -41.1953125 103.6640625 C-40.804077 102.65193695 -40.41284149 101.6398114 -40.00975037 100.59701538 C-38.72184818 97.27024102 -37.42352243 93.94764177 -36.125 90.625 C-35.22582044 88.30885013 -34.32731038 85.99244024 -33.42944336 83.67578125 C-31.56506485 78.86860373 -29.69648701 74.06308933 -27.82470703 69.25878906 C-25.07794433 62.20587835 -22.34767485 55.14667017 -19.62109375 48.0859375 C-17.93531346 43.72379683 -16.24896086 39.36187759 -14.5625 35 C-14.16476379 33.9707843 -13.76702759 32.9415686 -13.35723877 31.88116455 C-1.67787202 1.67787202 -1.67787202 1.67787202 0 0 Z " fill="#F6F2EC" transform="translate(295,325)"/>
<path d="M0 0 C7.92 0 15.84 0 24 0 C24 33 24 66 24 100 C28.29 100 32.58 100 37 100 C37 106.93 37 113.86 37 121 C29.89754492 121.02464156 22.79511449 121.042832 15.69262695 121.05493164 C13.27432828 121.05997349 10.85603267 121.06680678 8.43774414 121.07543945 C4.97020717 121.08751157 1.50271034 121.09322963 -1.96484375 121.09765625 C-3.05337143 121.10281754 -4.14189911 121.10797882 -5.26341248 121.11329651 C-6.76485558 121.11340981 -6.76485558 121.11340981 -8.29663086 121.11352539 C-9.62566689 121.11685631 -9.62566689 121.11685631 -10.98155212 121.12025452 C-13 121 -13 121 -14 120 C-14.09860131 118.59651265 -14.13078937 117.18819523 -14.1328125 115.78125 C-14.13410156 114.93175781 -14.13539063 114.08226562 -14.13671875 113.20703125 C-14.13285156 112.31371094 -14.12898438 111.42039062 -14.125 110.5 C-14.12886719 109.60667969 -14.13273437 108.71335937 -14.13671875 107.79296875 C-14.13542969 106.94347656 -14.13414062 106.09398437 -14.1328125 105.21875 C-14.13168457 104.43435547 -14.13055664 103.64996094 -14.12939453 102.84179688 C-14 101 -14 101 -13 100 C-8.71 100 -4.42 100 0 100 C0 67 0 34 0 0 Z " fill="#F3EFEA" transform="translate(331,114)"/>
<path d="M0 0 C14.78680428 -0.04458937 29.56020041 0.06238576 44.34375 0.3671875 C46.33929148 0.40674507 48.33483602 0.44614888 50.3303833 0.4854126 C55.62801675 0.5903964 60.92557979 0.69858588 66.22312927 0.80771637 C69.52036179 0.87541809 72.8176117 0.94220357 76.11486816 1.00872803 C118.08045997 1.85664306 160.04103264 2.87321903 202 4 C202 7.63 202 11.26 202 15 C135.34 15 68.68 15 0 15 C0 10.05 0 5.1 0 0 Z " fill="#8A51FD" transform="translate(149,250)"/>
<path d="M0 0 C7.59 0 15.18 0 23 0 C23 17.49 23 34.98 23 53 C15.41 53 7.82 53 0 53 C0 35.51 0 18.02 0 0 Z " fill="#F7F3ED" transform="translate(152,325)"/>
<path d="M0 0 C5 0 5 0 7.6875 2.3125 C12.08228682 7.41995495 12.49018541 10.46089758 12.38671875 17.04296875 C11.79939388 21.53392762 10.39780367 23.06553319 7 26 C4.28509275 27.75670469 3.28565953 28 0 28 C0 18.76 0 9.52 0 0 Z " fill="#2B194F" transform="translate(258,282)"/>
<path d="M0 0 C0 7.92 0 15.84 0 24 C-5 22 -5 22 -6.8125 20.0625 C-8.63018283 15.37479164 -8.78961573 10.95501982 -8 6 C-6.15442696 2.2947116 -4.36634003 0 0 0 Z " fill="#6A3EC1" transform="translate(248,284)"/>
<path d="M0 0 C0 8.91 0 17.82 0 27 C-1.65 27 -3.3 27 -5 27 C-4.67 18.75 -4.34 10.5 -4 2 C-4.66 1.67 -5.32 1.34 -6 1 C-4 0 -4 0 0 0 Z " fill="#5C36A9" transform="translate(252,282)"/>
<path d="M0 0 C3.875 1.75 3.875 1.75 5 4 C5.9351844 14.37901371 5.9351844 14.37901371 3.125 19.25 C1 21 1 21 -1 21 C-1.02888146 17.68751813 -1.04675799 14.37506833 -1.0625 11.0625 C-1.07087891 10.11697266 -1.07925781 9.17144531 -1.08789062 8.19726562 C-1.09111328 7.29814453 -1.09433594 6.39902344 -1.09765625 5.47265625 C-1.10289307 4.64000244 -1.10812988 3.80734863 -1.11352539 2.94946289 C-1 1 -1 1 0 0 Z " fill="#170D2B" transform="translate(265,286)"/>
<path d="M0 0 C1.65 0 3.3 0 5 0 C4.34 0.66 3.68 1.32 3 2 C2.72155068 4.71934335 2.72155068 4.71934335 2.8046875 7.8828125 C2.81113281 9.04941406 2.81757813 10.21601563 2.82421875 11.41796875 C2.84097656 12.64128906 2.85773438 13.86460937 2.875 15.125 C2.88402344 16.35605469 2.89304687 17.58710938 2.90234375 18.85546875 C2.92597452 21.90383815 2.95891946 24.95182382 3 28 C2.01 28 1.02 28 0 28 C0 18.76 0 9.52 0 0 Z " fill="#341E60" transform="translate(258,282)"/>
<path d="M0 0 C0 5.28 0 10.56 0 16 C-0.99 15.67 -1.98 15.34 -3 15 C-4.29729053 12.40541894 -4.2042812 10.39552402 -4.25 7.5 C-4.27578125 6.5203125 -4.3015625 5.540625 -4.328125 4.53125 C-4.21984375 3.6959375 -4.1115625 2.860625 -4 2 C-1 0 -1 0 0 0 Z " fill="#7E4AE6" transform="translate(244,288)"/>
<path d="M0 0 C1.32 0.66 2.64 1.32 4 2 C3.01 2.495 3.01 2.495 2 3 C2 9.93 2 16.86 2 24 C1.01 24 0.02 24 -1 24 C-1.02893932 20.37501666 -1.04677792 16.75006287 -1.0625 13.125 C-1.07087891 12.09246094 -1.07925781 11.05992187 -1.08789062 9.99609375 C-1.09111328 9.00996094 -1.09433594 8.02382813 -1.09765625 7.0078125 C-1.10289307 6.09660645 -1.10812988 5.18540039 -1.11352539 4.24658203 C-1 2 -1 2 0 0 Z " fill="#22143F" transform="translate(263,284)"/>
<path d="M0 0 C0.66 0 1.32 0 2 0 C2 6.93 2 13.86 2 21 C0.68 20.67 -0.64 20.34 -2 20 C-1.34 19.67 -0.68 19.34 0 19 C-0.33 14.05 -0.66 9.1 -1 4 C-1.99 4.495 -1.99 4.495 -3 5 C-1.125 1.125 -1.125 1.125 0 0 Z " fill="#7343D1" transform="translate(244,285)"/>
<path d="M0 0 C0.99 0.33 1.98 0.66 3 1 C3.02694851 2.95825873 3.04637218 4.91662226 3.0625 6.875 C3.07410156 7.96554687 3.08570313 9.05609375 3.09765625 10.1796875 C3 13 3 13 2 15 C1.34 15 0.68 15 0 15 C0 10.05 0 5.1 0 0 Z " fill="#0C0716" transform="translate(267,289)"/>
</svg>
